<?xml version="1.0" encoding="UTF-8"?>
<!-- Created with Inkscape (http://www.inkscape.org/) -->
<svg width="81.0653mm" height="54.9817mm" version="1.1" viewBox="0 0 81.0653 54.9817" xmlns="http://www.w3.org/2000/svg">
<title>INDYCAR, LLC logo</title>
 <defs>
  <clipPath id="vlpc">
   <path d="m225.64 477.48h170.88v115.92h-170.88z"/>
  </clipPath>
  <clipPath id="vlpb">
   <path d="m225.64 477.489h170.88v115.898h-170.88z"/>
  </clipPath>
  <clipPath id="vlpa">
   <path d="m225.64 477.48h170.88v115.92h-170.88z"/>
  </clipPath>
  <clipPath id="vlpd">
   <path d="m225.64 477.48h170.88v115.92h-170.88z"/>
  </clipPath>
 </defs>
 <g transform="translate(-189.261 -76.7257)">
  <g transform="matrix(.474399 0 0 -.474399 82.2176 358.228)">
   <g clip-path="url(#vlpc)">
    <path d="m229.394 495.675h6.9708l-3.7539-17.5797h-6.9704l3.7535 17.5797" style="fill:#000"/>
    <path d="m239.85 495.675h7.9594l4.9873-9.7504h0.0742l2.0819 9.7504h6.674l-3.754-17.5797h-7.6376l-5.3127 9.848h-0.0494l-2.1029-9.848h-6.674l3.7538 17.5797" style="fill:#000"/>
    <path d="m269.2 482.527h4.0044c3.1887 0 4.8107 1.5759 5.4047 4.3574 0.594 2.7826-0.3547 4.3581-3.5433 4.3581h-4.0045zm-4.163 13.1477h13.5705c5.9819 0 8.6516-2.3148 7.2687-8.7903-1.3194-6.1794-5.0162-8.7894-10.8742-8.7894h-13.7188l3.7538 17.5797" style="fill:#000"/>
   </g>
   <g clip-path="url(#vlpb)">
    <path d="m292.62 483.045-5.1387 12.6304h7.9593l1.8896-6.8941 4.8339 6.8941h7.9594l-10.5329-12.6304-1.0567-4.9493h-6.9705l1.0566 4.9493" style="fill:#000"/>
    <path d="m331.215 484.94c-0.9394-2.3142-2.1299-4.1856-4.1334-5.4655-1.9791-1.2806-4.8009-1.9945-9.0526-1.9945-4.227 0-11.9999 0.2952-10.0543 9.4048 1.9449 9.1101 9.844 9.4057 14.0708 9.4057 4.2022 0 10.5627-0.5416 9.9895-7.5095h-7.8605c0.0704 1.2555-0.3809 3.0776-3.0753 3.0776-2.8427 0-4.9469-1.4035-5.7089-4.9738-0.7624-3.5694 0.6929-4.9728 3.239-4.9728 2.1998 0 3.7043 0.9106 4.7249 3.028h7.8608" style="fill:#000"/>
   </g>
   <g clip-path="url(#vlpa)">
    <path d="m344.138 490.357h-0.0497l-3.3486-5.9582h4.2022zm-3.1657 5.3184h8.5526l3.7604-17.5797h-7.4156l-0.3101 2.0192h-7.2674l-1.1726-2.0192h-7.4156l11.2683 17.5797" style="fill:#000"/>
    <path d="m363.248 487.943h4.9437c1.3598 0 2.0438 0.5424 2.2805 1.6499 0.2842 1.3301-0.5131 1.6496-1.6747 1.6496h-4.8447zm-5.3195 7.7317h14.683c2.0015 0 3.1754-0.1725 4.0406-0.6401 1.1725-0.6405 1.8986-2.3391 1.4884-4.2597-0.3521-1.6496-1.4232-3.4222-3.5768-4.0132l-0.0102-0.0495c0.9754-0.2953 1.6261-1.1816 1.4233-2.7077l-0.5232-3.841c-0.0943-0.7879 0.0942-1.527 0.4231-2.0685h-7.6128c-0.1367 0.5171 0.0265 1.2806 0.3391 3.324 0.2047 1.3049-0.0724 2.0926-1.3577 2.0926h-4.9434l-1.1568-5.4166h-6.9706l3.754 17.5797" style="fill:#000"/>
    <path d="m379.951 499.868h-9e-3l-0.6203-1.1899h-0.4551l-0.1101 1.1899h-9e-3l-0.2551-1.1899h-0.5884l0.3913 1.8285h0.8566l0.1028-1.0558h9e-3l0.5565 1.0558h0.8551l-0.3913-1.8285h-0.5884l0.255 1.1899zm-3.1652 0.1595h-0.5001l0.1029 0.4791h1.6406l-0.1028-0.4791h-0.5001l-0.2884-1.3494h-0.642l0.2899 1.3494" style="fill:#000"/>
    <path d="m388.34 591.557c0.1304-0.0644 0.2565-0.1335 0.3797-0.2068-0.1232 0.0733-0.2493 0.1424-0.3797 0.2068" style="fill:#181210"/>
    <path d="m388.861 591.265c0.1391-0.0896 0.2739-0.1858 0.4044-0.2869-0.1305 0.1011-0.2653 0.1973-0.4044 0.2869" style="fill:#181210"/>
    <path d="m390.853 588.943c0.0652-0.1454 0.1232-0.2936 0.1754-0.446-0.0522 0.1524-0.1102 0.3006-0.1754 0.446" style="fill:#181210"/>
    <path d="m386.509 592.105c0.1493-0.0201 0.2971-0.042 0.4391-0.0718-0.1435 0.0298-0.2898 0.0517-0.4391 0.0718" style="fill:#181210"/>
    <path d="m387.779 591.796c0.129-0.0474 0.2551-0.0985 0.3797-0.1542-0.1246 0.0557-0.2507 0.1068-0.3797 0.1542" style="fill:#181210"/>
    <path d="m385.622 592.171c0.2305-6e-4 0.4565-0.0143 0.6769-0.0367-0.2204 0.0224-0.4464 0.0361-0.6769 0.0367" style="fill:#181210"/>
    <path d="m387.173 591.978c0.1347-0.0329 0.2666-0.0687 0.3956-0.1102-0.129 0.0415-0.2609 0.0773-0.3956 0.1102" style="fill:#181210"/>
    <path d="m390.567 589.5c0.0841-0.1426 0.1623-0.2899 0.2333-0.441-0.071 0.1517-0.1492 0.2979-0.2333 0.441" style="fill:#181210"/>
    <path d="m391.224 587.775c0.0362-0.1846 0.0652-0.3725 0.084-0.5639-0.0188 0.1914-0.0478 0.3793-0.084 0.5639" style="fill:#181210"/>
    <path d="m391.344 586.474c4e-3 0.233-9e-3 0.4608-0.0289 0.6853 0.0608-0.654 0.0174-1.345-0.1421-2.0563l-0.0869-0.4111 0.0869 0.4096c0.1769 0.7736 0.2319 1.19 0.171 1.3725" style="fill:#181210"/>
    <path d="m391.07 588.37c0.0493-0.1571 0.0913-0.3171 0.1276-0.4806-0.0363 0.1635-0.0783 0.3235-0.1276 0.4806" style="fill:#181210"/>
    <path d="m390.521 589.581c-0.3146 0.5114-0.7117 0.9645-1.1827 1.3433 0.4696-0.3788 0.8681-0.8319 1.1827-1.3433" style="fill:#181210"/>
    <path d="m386.299 592.134c0.071-8e-3 0.1405-0.02 0.2101-0.0298-0.0696 0.01-0.1391 0.0223-0.2101 0.0298" style="fill:#e51636"/>
    <path d="m387.568 591.868c0.0711-0.0227 0.1406-0.0477 0.2102-0.0728-0.0696 0.0251-0.1391 0.0501-0.2102 0.0728" style="fill:#e51636"/>
    <path d="m376.776 517.247 14.3104 67.4451-14.3626-67.4275 0.0522-0.0176" style="fill:#e51636"/>
    <path d="m386.948 592.033c0.0768-0.0153 0.1507-0.0357 0.2247-0.0543-0.074 0.0186-0.1479 0.039-0.2247 0.0543" style="fill:#e51636"/>
    <path d="m391.198 587.889c9e-3 -0.0377 0.0188-0.0755 0.0261-0.1137-7e-3 0.0382-0.0174 0.076-0.0261 0.1137" style="fill:#e51636"/>
    <path d="m391.028 588.497c0.0145-0.0425 0.029-0.085 0.042-0.1274-0.013 0.0424-0.0275 0.0849-0.042 0.1274" style="fill:#e51636"/>
    <path d="m390.521 589.581c0.0159-0.0265 0.0304-0.0548 0.0463-0.0814-0.0159 0.0272-0.0304 0.0549-0.0463 0.0814" style="fill:#e51636"/>
    <path d="m390.8 589.059c0.0189-0.0382 0.0348-0.0772 0.0522-0.1159-0.0174 0.0387-0.0333 0.0777-0.0522 0.1159" style="fill:#e51636"/>
    <path d="m388.158 591.641c0.0609-0.0272 0.1218-0.0553 0.1812-0.0846-0.0594 0.0293-0.1203 0.0574-0.1812 0.0846" style="fill:#e51636"/>
    <path d="m391.308 587.212c3e-3 -0.0176 6e-3 -0.0346 7e-3 -0.0521-2e-3 0.0175-4e-3 0.0345-7e-3 0.0521" style="fill:#e51636"/>
    <path d="m388.719 591.35c0.0463-0.0284 0.0956-0.0549 0.142-0.0846-0.0464 0.0297-0.0957 0.0562-0.142 0.0846" style="fill:#e51636"/>
    <path d="m389.266 590.978c0.0231-0.0181 0.0492-0.0351 0.0724-0.0537-0.0232 0.0186-0.0493 0.0356-0.0724 0.0537" style="fill:#e51636"/>
   </g>
   <path d="m391.315 587.159c-2e-3 0.0175-4e-3 0.0345-7e-3 0.0521-0.0188 0.1914-0.0478 0.3793-0.084 0.5639-7e-3 0.0382-0.0174 0.076-0.0261 0.1137-0.0363 0.1635-0.0783 0.3235-0.1276 0.4806-0.013 0.0424-0.0275 0.0849-0.042 0.1274-0.0522 0.1524-0.1102 0.3006-0.1754 0.446-0.0174 0.0387-0.0333 0.0777-0.0522 0.1159-0.071 0.1511-0.1492 0.2984-0.2333 0.441-0.0159 0.0266-0.0304 0.0549-0.0463 0.0814-0.3146 0.5114-0.7131 0.9645-1.1827 1.3433-0.0232 0.0186-0.0493 0.0356-0.0724 0.0537-0.1305 0.1011-0.2653 0.1973-0.4044 0.2869-0.0464 0.0297-0.0957 0.0562-0.142 0.0846-0.1232 0.0733-0.2493 0.1424-0.3797 0.2068-0.0594 0.0293-0.1203 0.0574-0.1812 0.0846-0.1246 0.0557-0.2507 0.1068-0.3797 0.1542-0.0696 0.0251-0.1391 0.0501-0.2102 0.0728-0.129 0.0415-0.2609 0.0773-0.3956 0.1102-0.074 0.0186-0.1479 0.039-0.2247 0.0543-0.142 0.0298-0.2898 0.0517-0.4391 0.0718-0.0696 0.01-0.1391 0.0223-0.2101 0.0298-0.2204 0.0224-0.4464 0.0361-0.6769 0.0367h-127.243c-3.9164 6e-3 -7.7831-3.0839-8.6374-6.8988l-4.9424-23.2339 131.924-44.7739 14.3626 67.4275 0.0869 0.4111c0.1595 0.7113 0.2029 1.4023 0.1421 2.0563" style="fill:#e31936"/>
   <path d="m390.999 586.282c0.0174-0.0861-0.0348-0.4856-0.1812-1.1144l-14.4408-67.7858-131.254 44.5458 4.9566 23.2719c0.7827 3.593 4.6028 6.6515 8.2872 6.6135h127.253c1.5695 0 2.929-0.5579 3.903-1.5426 0.9405-0.947 1.4463-2.2376 1.4463-3.6947 0.0218 0-3e-3 -0.0783 0.0232-0.2548l0.2971-0.0389zm-2.6725-41.5796-7.9247-37.3337c-0.5291-2.4924-2.7378-4.2006-5.1972-4.2006-0.3623 0-0.7319 0.0373-1.1015 0.1148l-0.0188 4e-3c0.7493 0.9752 1.313 2.0754 1.5971 3.2777l9.4103 44.1475c2.3623-0.9336 3.7783-3.4488 3.2348-6.0094zm-154.482-6.47 7.926 37.3348c0.5279 2.4909 2.7351 4.1996 5.1929 4.1996 0.1128 0 0.227-0.0106 0.3408-0.0175l-10.1285-47.5613c-2.4187 0.9038-3.8816 3.4493-3.3312 6.0444zm158.74 48.0496c-0.0117 0.0921 0 0.1794-0.0377 0.3044 0 1.8262-0.6566 3.5302-1.8972 4.7893-1.2855 1.3088-3.0884 2.0164-5.029 2.0101h-127.253c-4.5025-0.0273-8.8109-3.4697-9.8306-7.8501l-0.8881-4.1704c-0.2281 0.0224-0.4568 0.0358-0.685 0.0358-3.2644 0-6.1234-2.3116-6.7985-5.496l-7.9256-37.3342c-0.7364-3.4725 1.2921-6.8956 4.5924-7.998l-4.9665-23.3214c-0.1749-0.7054-0.2478-1.4197-0.2478-2.1087 0-1.6242 0.4574-3.1414 1.3822-4.2922 1.128-1.4071 2.8437-2.1443 4.8007-2.1443h127.282c2.5847 0.025 5.5395 1.2119 7.7062 3.1828l0.9739-0.2051c0.4754-0.0996 0.9609-0.1501 1.4421-0.1501 3.2652 0 6.1261 2.3114 6.803 5.4965l7.9247 37.3344c0.3841 1.8102 0.0377 3.6616-0.9753 5.2128-0.8479 1.2965-2.0798 2.2466-3.5218 2.7493l6.9305 32.5109c0.1406 0.6797 0.2072 1.0777 0.2189 1.4442" style="fill:#000"/>
   <g clip-path="url(#vlpd)">
    <path d="m353.72 515.549-20.8467 5.1468c0.2612 0.3124 0.5096 0.6104 0.7392 0.8849l20.7126-3.1788zm-40.3442 59.5273c0.835 1.0356 0.8374 1.0383 0.8374 1.0383 0.4871 0.5538 1.7123 2.2078 4.5825 1.6099 2e-3 -6e-4 4e-3 -1e-3 7e-3 -2e-3 2e-3 0 4e-3 -6e-4 7e-3 -1e-3 2.8676-0.6102 3.3155-2.6162 3.5357-3.3195 0 0 1e-3 -3e-3 0.329-1.2848l-9.2984 1.9588zm-51.807-40.1205 0.6052 2.852 20.2329-5.4434c0.0983-0.3424 0.2045-0.7158 0.3168-1.1063zm122.658 16.022-16.8031 3.5386c-2.8712 0.6049-5.6918-1.224-6.2992-4.085l-1.4453-6.8084-15.9083 3.9845 0.9111 4.2933 4.3769-0.9214c0.3456-0.073 0.6854 0.1478 0.758 0.4919l0.6595 3.1054c0.0733 0.3442-0.1479 0.6831-0.4934 0.7548l-9.5961 2.0221c-0.3451 0.0724-0.6846-0.1483-0.7573-0.4922l-0.6602-3.1072c-0.0727-0.3431 0.1485-0.6815 0.4934-0.7544l2.2444-0.4723-0.8867-4.1809-2.5027 0.6265c-1.8998 0.5832-5.5117 0.8161-7.9661 9.2967-0.7332 2.536-1.3944 4.8155-1.9682 6.7933l28.7563-6.0561-1.9714-9.2863 0.9657-0.2027 4.4185 20.8134-0.9651 0.2038-1.058-4.9836-32.2651 6.795c-0.1228 0.423-0.1903 0.65-0.1903 0.65-0.3832 1.5918-1.1245 6.1393-6.7246 7.3331l6e-4 9e-4c-5e-3 2e-3 -0.01 2e-3 -0.0138 3e-3 -5e-3 1e-3 -8e-3 2e-3 -0.0141 3e-3v-9e-4c-5.6058 1.1655-8.132-2.6935-9.1292-3.9943 0 0-0.1531-0.1809-0.4374-0.5177l-32.2644 6.7957 1.057 4.9831-0.9653 0.2027-4.4179-20.8141 0.9651-0.2036 1.9713 9.2863 28.7566-6.0562c-1.3289-1.5777-2.8595-3.3951-4.5611-5.4178-5.6897-6.7652-9.0871-5.5224-11.0612-5.2894l-2.5432 0.4362 0.8875 4.1798 2.245-0.4723c0.3455-0.0723 0.6841 0.1478 0.7578 0.4914l0.6591 3.1059c0.0727 0.3447-0.1479 0.682-0.493 0.7548l-9.5961 2.021c-0.3451 0.0735-0.6852-0.1467-0.7578-0.491l-0.6596-3.1062c-0.0726-0.3438 0.1484-0.6826 0.4935-0.7549l4.3764-0.922-0.9107-4.2926-16.1665 2.77 1.4454 6.8084c0.6067 2.861-1.2296 5.6705-4.1009 6.2748l-16.8025 3.5377c-2.8712 0.606-5.6929-1.223-6.299-4.0836l-7.926-37.3348c-0.6068-2.8609 1.2295-5.6694 4.1008-6.2746l16.8025-3.539c2.8725-0.6039 5.6924 1.2241 6.2998 4.084l0.0227 0.1082 22.3818-3.9137c0.2606-0.9191 0.4929-1.7436 0.6355-2.2621 0.5148-1.8844 2.3009-2.0974 2.3009-2.0974l17.9626-3.7834 4.3946-0.9239 17.9636-3.7842s1.7181-0.5252 2.9555 0.9902c0.3409 0.4175 0.8889 1.0783 1.5002 1.8135l22.0564-5.446-0.0223-0.1066c-0.6067-2.8613 1.2284-5.6697 4.1007-6.2747l16.8031-3.5398c2.8711-0.6033 5.6914 1.2246 6.2987 4.0858l7.9247 37.3337c0.6073 2.8606-1.229 5.671-4.1001 6.2749" style="fill:#fff"/>
    <path d="m444.036 495.675h6.9712l-3.7537-17.5797h-6.9711l3.7536 17.5797" style="fill:#fff"/>
    <path d="m454.491 495.675h7.9595l4.9871-9.7504h0.0753l2.0812 9.7504h6.674l-3.7537-17.5797h-7.6377l-5.3132 9.848h-0.0492l-2.103-9.848h-6.674l3.7537 17.5797" style="fill:#fff"/>
    <path d="m483.842 482.527h4.0045c3.1884 0 4.8116 1.5759 5.4058 4.3574 0.5928 2.7826-0.3565 4.3581-3.5449 4.3581h-4.003zm-4.1623 13.1477h13.5697c5.9827 0 8.6523-2.3148 7.2697-8.7903-1.3203-6.1794-5.0175-8.7894-10.8741-8.7894h-13.719l3.7537 17.5797" style="fill:#fff"/>
   </g>
  </g>
 </g>
</svg>
