<svg version="1.2" baseProfile="tiny-ps" xmlns="http://www.w3.org/2000/svg" viewBox="0 0 1062 311" width="1062" height="311">
	<title>image</title>
	<style>
		tspan { white-space:pre }
		.shp0 { fill: #575756 } 
		.shp1 { fill: #d4d3d3 } 
		.shp2 { fill: #e3c1c7 } 
		.shp3 { fill: #838382 } 
		.shp4 { fill: #e2001a } 
		.shp5 { fill: #a8a8a8 } 
	</style>
	<g id="Background">
		<path id="Path 0" class="shp0" d="M121 1.04C115.22 1.46 106.68 2.5 102 3.37C97.32 4.24 89.45 6.11 84.5 7.54C79.55 8.97 71.22 12.27 66 14.88C60.78 17.49 54.03 21.43 51 23.64C47.97 25.86 42.63 30.33 39.13 33.59C35.63 36.84 30.66 42.65 28.09 46.5C25.52 50.35 22.01 56.88 20.29 61C18.57 65.13 16.41 72.1 15.49 76.5C14.49 81.29 13.81 89.11 13.81 96C13.81 104.34 14.4 109.97 15.96 116.5C17.17 121.55 19.94 129.01 22.27 133.5C25.33 139.39 28.56 143.61 34.51 149.5C39.49 154.41 45.86 159.42 51.05 162.47C55.7 165.2 63.32 169.09 68 171.11C72.68 173.12 81.68 176.39 88 178.36C94.32 180.33 111.65 184.83 126.5 188.36C141.35 191.89 157.1 196.01 161.5 197.52C165.9 199.03 171.53 201.27 174 202.5C176.47 203.74 180.02 206.04 181.88 207.62C183.74 209.21 185.94 211.85 186.76 213.5C187.58 215.15 188.27 218.98 188.29 222C188.3 225.34 187.62 228.88 186.54 231C185.56 232.93 183.81 235.56 182.63 236.85C181.46 238.14 178.7 240.12 176.5 241.25C174.3 242.38 170.25 243.91 167.5 244.65C164.75 245.39 158.9 246.28 154.5 246.63C150.1 246.98 141.1 246.72 134.5 246.06C127.9 245.39 118.68 244.01 114 242.98C109.32 241.95 101 239.55 95.5 237.64C90 235.73 81.22 232.13 76 229.64C70.78 227.14 61.78 222 56 218.2L45.5 211.29C15.28 245.36 5.04 257 3.25 259.13L0 263C11.24 271.29 17.54 275.56 21.25 277.85C24.96 280.13 32.5 284.25 38 287C43.5 289.75 52.16 293.55 57.25 295.45C62.34 297.34 71.68 300.24 78 301.89C84.32 303.53 93.32 305.55 98 306.37C102.68 307.2 110.55 308.38 115.5 309C120.45 309.62 131.7 310.21 140.5 310.31C149.3 310.42 161.45 309.91 167.5 309.19C173.55 308.48 181.88 307.2 186 306.36C190.13 305.51 197.77 303.47 203 301.81C208.23 300.16 215.88 297.14 220 295.1C224.13 293.06 230.2 289.57 233.5 287.35C236.8 285.12 242.2 280.83 245.5 277.8C248.8 274.76 253.58 269.18 256.12 265.39C258.66 261.6 261.7 256.59 262.87 254.25C264.04 251.91 266.1 246.74 267.43 242.75C268.77 238.76 270.41 230.55 271.08 224.5C272.04 215.78 272.03 211.42 271.03 203.5C270.34 198 268.91 191.03 267.85 188C266.78 184.97 264.28 179.57 262.29 176C260.3 172.43 255.48 166.32 251.58 162.43C247.69 158.54 241.57 153.39 238 150.98C234.43 148.58 227 144.5 221.5 141.93C216 139.35 206.1 135.4 199.5 133.15C192.9 130.9 175.13 126.16 160 122.62C144.88 119.08 128.22 114.82 123 113.14C117.78 111.46 110.69 108.27 107.25 106.05C102.93 103.25 100.38 100.76 99 98C97.73 95.45 97 92 97 88.5C97 85.33 97.74 81.45 98.75 79.33C99.71 77.31 102.33 74.05 104.57 72.08C106.81 70.11 111.31 67.6 114.57 66.5C119.46 64.85 123.05 64.51 135 64.55C145.9 64.59 152.11 65.14 160 66.79C165.78 67.99 175.45 70.53 181.5 72.43C187.55 74.34 199.81 79.52 208.75 83.95C217.69 88.38 225.15 91.89 225.34 91.75C225.52 91.61 233.46 80.03 242.98 66C252.5 51.97 260.44 40.05 260.63 39.5C260.83 38.95 257.05 35.93 252.24 32.79C247.43 29.65 239.45 25.09 234.5 22.65C229.55 20.21 222.57 17.07 219 15.67C215.43 14.26 206.88 11.53 200 9.59C193.13 7.66 183.45 5.4 178.5 4.57C173.55 3.74 161.63 2.37 152 1.54C142.38 0.7 133.82 0.07 133 0.15C132.18 0.23 126.78 0.63 121 1.04Z" />
		<path id="Path 1" class="shp1" d="M327.5 5.75C350.6 5.9 387.95 5.9 410.5 5.75C433.05 5.6 414.15 5.48 368.5 5.48C322.85 5.48 304.4 5.6 327.5 5.75Z" />
		<path id="Path 2" class="shp2" d="M989 5.75C1002.47 5.91 1024.75 5.91 1038.5 5.75C1052.25 5.59 1041.22 5.46 1014 5.46C986.78 5.46 975.53 5.59 989 5.75Z" />
		<path id="Path 3" fill-rule="evenodd" class="shp0" d="M286.1 5.9L471.5 6.54L483.5 9.24C490.1 10.72 498.88 13.3 503 14.97C507.13 16.65 513.87 19.93 517.99 22.26C522.41 24.76 528.46 29.47 532.74 33.75C538.01 39.01 541.1 43.2 544 49C546.2 53.4 548.72 60.04 549.6 63.75C550.81 68.84 551.09 73.82 550.75 84C550.38 95.27 549.85 98.82 547.59 105.5C546.1 109.9 543.03 116.65 540.77 120.5C538.5 124.35 533.69 130.47 530.08 134.09C526.45 137.72 519.91 142.77 515.5 145.35C511.1 147.91 503.9 151.19 499.5 152.63C494.04 154.41 491.98 155.49 493 156.02C493.83 156.45 499.45 158.22 505.5 159.97C511.55 161.72 520.55 165.24 525.5 167.79C532.02 171.16 536.45 174.38 541.58 179.47C547.03 184.89 549.6 188.45 552.73 195C554.97 199.68 557.36 205.97 558.04 209C558.88 212.7 559.11 218.91 558.73 228C558.29 238.66 557.67 242.97 555.76 248.5C554.42 252.35 551.81 258.43 549.95 262C547.86 266.02 543.7 271.39 539.03 276.08C533.94 281.2 528.75 285.19 523 288.39C518.33 290.99 511.35 294.24 507.5 295.62C503.65 296.99 495.1 299.3 476.5 303.41L286 304L286.1 5.9ZM366 128C431.12 127.37 440.75 126.95 445 125.81C448.02 125 452.75 123.19 455.5 121.8C458.25 120.4 461.87 117.74 463.55 115.88C465.23 114.02 467.43 110.03 468.44 107C469.74 103.13 470.14 99.73 469.8 95.5C469.48 91.45 468.38 87.75 466.41 84.13C464.81 81.18 461.7 77.46 459.5 75.85C457.3 74.24 452.58 71.95 449 70.75C442.87 68.7 440.34 68.56 404.31 68.22L366.13 67.87L366 128ZM366 243C428.57 243.02 446.73 242.59 450 241.97C453.02 241.39 457.98 239.92 461 238.69C464.02 237.46 468.18 235.12 470.23 233.48C472.29 231.84 475.21 228.25 476.73 225.5C479.15 221.14 479.5 219.41 479.5 212C479.5 204.41 479.18 202.93 476.5 198.16C474.46 194.52 471.9 191.77 468.5 189.56C465.75 187.76 461.48 185.56 459 184.66C456.52 183.76 451.58 182.57 448 182.02C444.43 181.47 424.51 181.01 403.75 181.01L366 181L366 243ZM573 6L653 6L653 148L661.75 137.21C666.56 131.27 692.77 99.31 769.5 5.95L865 6L861.16 10.75C859.06 13.36 832.06 46.21 801.16 83.75C770.27 121.29 744.48 152.79 743.85 153.75C742.85 155.26 750.57 165.12 800.01 225.5C831.53 264 859.05 297.64 865 305L769.5 305.05L653 163L653 305L573 305L573 6Z" />
		<path id="Path 4" class="shp3" d="M653.47 77C653.47 116.32 653.6 132.53 653.75 113C653.9 93.47 653.9 61.3 653.75 41.5C653.6 21.7 653.47 37.67 653.47 77Z" />
		<path id="Path 5" class="shp0" d="M886 7C886 7.55 887.24 8.11 888.75 8.25C891.4 8.49 891.51 8.73 891.75 14.75C891.94 19.53 892.35 21 893.5 21C894.68 21 895 19.61 895 14.5C895 8.23 895.09 8 897.5 8C898.88 8 900 7.55 900 7C900 6.43 897 6 893 6C889 6 886 6.43 886 7ZM902 13.5C902 19.5 902.3 21 903.5 21C904.65 21 905.02 19.66 905.08 15.25L905.17 9.5C908.64 18.73 910.09 21 911 21.01C911.89 21.01 913.31 18.87 914.5 15.75L916.5 10.5C916.94 19.64 917.39 21 918.5 21C919.7 21 920 19.5 920 13.5L920 6C914.26 6 913.91 6.39 913 10.5C912.45 12.98 911.55 15.23 911 15.5C910.45 15.77 909.33 13.75 908.5 11C907.22 6.73 906.63 6 904.5 6C902.06 6 902 6.17 902 13.5Z" />
		<path id="Path 6" class="shp4" d="M957.17 16.75C952.28 22.66 924.6 56.3 895.66 91.5L843.03 155.5C849.68 163.25 877.24 196.73 908.56 234.9C939.88 273.07 965.95 304.47 966.5 304.66C967.05 304.86 988.81 304.9 1014.86 304.76L1062.22 304.5C969.63 191.35 942.12 157.82 941.35 157C940.12 155.69 947.65 146.11 1000.24 82C1033.41 41.58 1060.87 7.94 1061.27 7.25C1061.85 6.26 1052.13 6 1014.03 6L966.05 6L957.17 16.75Z" />
		<path id="Path 7" class="shp3" d="M365.24 97.75L365 129L414.5 128.54L366 128L365.47 66.5L365.24 97.75Z" />
		<path id="Path 8" class="shp5" d="M381.5 67.75C390.3 67.91 404.93 67.91 414 67.75C423.07 67.58 415.88 67.45 398 67.45C380.13 67.45 372.7 67.58 381.5 67.75Z" />
		<path id="Path 9" class="shp3" d="M653.47 234C653.47 273.32 653.6 289.52 653.75 270C653.9 250.48 653.9 218.3 653.75 198.5C653.6 178.7 653.47 194.68 653.47 234ZM365.45 212C365.45 229.88 365.58 237.07 365.75 228C365.91 218.93 365.91 204.3 365.75 195.5C365.58 186.7 365.45 194.13 365.45 212Z" />
		<path id="Path 10" class="shp5" d="M383 180.75C392.63 180.91 408.6 180.91 418.5 180.75C428.4 180.58 420.52 180.45 401 180.45C381.48 180.45 373.38 180.58 383 180.75Z" />
		<path id="Path 11" class="shp1" d="M382.5 243.75C391.85 243.91 407.6 243.91 417.5 243.75C427.4 243.58 419.75 243.45 400.5 243.45C381.25 243.45 373.15 243.58 382.5 243.75Z" />
		<path id="Path 12" class="shp3" d="M322 304.75C342.07 304.9 374.48 304.9 394 304.75C413.52 304.6 397.1 304.47 357.5 304.47C317.9 304.47 301.93 304.6 322 304.75Z" />
		<path id="Path 13" class="shp2" d="M989 305.75C1002.47 305.91 1024.75 305.91 1038.5 305.75C1052.25 305.59 1041.22 305.46 1014 305.46C986.78 305.46 975.53 305.59 989 305.75Z" />
	</g>
</svg>